<svg width="16" height="17" viewBox="0 0 16 17" fill="none" xmlns="http://www.w3.org/2000/svg">
<path d="M2.91667 7.5L7.5 0L12.0833 7.5H2.91667ZM12.0833 16.6667C11.0417 16.6667 10.1562 16.3021 9.42708 15.5729C8.69792 14.8438 8.33333 13.9583 8.33333 12.9167C8.33333 11.875 8.69792 10.9896 9.42708 10.2604C10.1562 9.53125 11.0417 9.16667 12.0833 9.16667C13.125 9.16667 14.0104 9.53125 14.7396 10.2604C15.4688 10.9896 15.8333 11.875 15.8333 12.9167C15.8333 13.9583 15.4688 14.8438 14.7396 15.5729C14.0104 16.3021 13.125 16.6667 12.0833 16.6667ZM0 16.25V9.58333H6.66667V16.25H0Z" fill="#0D631B"/>
</svg>
