<svg width="40" height="40" viewBox="0 0 40 40" fill="none" xmlns="http://www.w3.org/2000/svg">
<rect width="40" height="40" rx="20" fill="#0D631B"/>
<path d="M18.8333 23.8333L24.7083 17.9583L23.5417 16.7916L18.8333 21.5L16.4583 19.125L15.2917 20.2916L18.8333 23.8333ZM20 28.3333C18.8472 28.3333 17.7639 28.1145 16.75 27.677C15.7361 27.2395 14.8542 26.6458 14.1042 25.8958C13.3542 25.1458 12.7604 24.2638 12.3229 23.25C11.8854 22.2361 11.6667 21.1527 11.6667 20C11.6667 18.8472 11.8854 17.7638 12.3229 16.75C12.7604 15.7361 13.3542 14.8541 14.1042 14.1041C14.8542 13.3541 15.7361 12.7604 16.75 12.3229C17.7639 11.8854 18.8472 11.6666 20 11.6666C21.1528 11.6666 22.2361 11.8854 23.25 12.3229C24.2639 12.7604 25.1458 13.3541 25.8958 14.1041C26.6458 14.8541 27.2396 15.7361 27.6771 16.75C28.1146 17.7638 28.3333 18.8472 28.3333 20C28.3333 21.1527 28.1146 22.2361 27.6771 23.25C27.2396 24.2638 26.6458 25.1458 25.8958 25.8958C25.1458 26.6458 24.2639 27.2395 23.25 27.677C22.2361 28.1145 21.1528 28.3333 20 28.3333ZM20 26.6666C21.8611 26.6666 23.4375 26.0208 24.7292 24.7291C26.0208 23.4375 26.6667 21.8611 26.6667 20C26.6667 18.1388 26.0208 16.5625 24.7292 15.2708C23.4375 13.9791 21.8611 13.3333 20 13.3333C18.1389 13.3333 16.5625 13.9791 15.2708 15.2708C13.9792 16.5625 13.3333 18.1388 13.3333 20C13.3333 21.8611 13.9792 23.4375 15.2708 24.7291C16.5625 26.0208 18.1389 26.6666 20 26.6666Z" fill="white"/>
</svg>
