<svg width="11" height="20" viewBox="0 0 11 20" fill="none" xmlns="http://www.w3.org/2000/svg">
<path d="M8.12955 9H2.77955C2.69621 9.2 2.59621 9.39583 2.47955 9.5875C2.36288 9.77917 2.22121 9.94167 2.05455 10.075L2.77955 18H8.12955L8.85455 10.075C8.68788 9.925 8.54621 9.75833 8.42955 9.575C8.31288 9.39167 8.21288 9.2 8.12955 9ZM2.50455 5L2.22955 6.1C2.34621 6.23333 2.45038 6.375 2.54205 6.525C2.63371 6.675 2.71288 6.83333 2.77955 7H8.12955C8.19621 6.83333 8.27538 6.675 8.36705 6.525C8.45871 6.375 8.56288 6.23333 8.67955 6.1L8.40455 5H2.50455ZM2.77955 20C2.26288 20 1.81288 19.8292 1.42955 19.4875C1.04621 19.1458 0.829545 18.7167 0.779545 18.2L0.00454545 9.55C-0.0121212 9.38333 0.0170455 9.22917 0.0920455 9.0875C0.167045 8.94583 0.279545 8.83333 0.429545 8.75C0.562879 8.66667 0.679545 8.56667 0.779545 8.45C0.879545 8.33333 0.929545 8.19167 0.929545 8.025C0.929545 7.875 0.896212 7.7375 0.829545 7.6125C0.762879 7.4875 0.662879 7.38333 0.529545 7.3C0.362879 7.21667 0.237879 7.0875 0.154545 6.9125C0.0712121 6.7375 0.0545455 6.55833 0.104545 6.375L0.754545 3.75C0.804545 3.51667 0.921212 3.33333 1.10455 3.2C1.28788 3.06667 1.49621 3 1.72955 3H4.45455V2H2.95455V0H7.95455V2H6.45455V3H9.17955C9.41288 3 9.61705 3.06667 9.79205 3.2C9.96705 3.33333 10.0795 3.51667 10.1295 3.75L10.8045 6.375C10.8545 6.55833 10.8379 6.7375 10.7545 6.9125C10.6712 7.0875 10.5462 7.21667 10.3795 7.3C10.2462 7.36667 10.142 7.45833 10.067 7.575C9.99205 7.69167 9.95455 7.825 9.95455 7.975C9.95455 8.15833 10.0004 8.3125 10.092 8.4375C10.1837 8.5625 10.3045 8.66667 10.4545 8.75C10.6045 8.83333 10.7212 8.94583 10.8045 9.0875C10.8879 9.22917 10.9212 9.38333 10.9045 9.55L10.1295 18.175C10.0795 18.6917 9.86288 19.125 9.47955 19.475C9.09621 19.825 8.64621 20 8.12955 20H2.77955Z" fill="#1B1D0E"/>
</svg>
