<svg width="64" height="64" viewBox="0 0 64 64" fill="none" xmlns="http://www.w3.org/2000/svg">
<rect width="64" height="64" rx="32" fill="#81F3E5" fill-opacity="0.3"/>
<path d="M22.8534 41.1442C21.7284 40.0192 20.8472 38.7192 20.2097 37.2442C19.5722 35.7692 19.2534 34.2442 19.2534 32.6692C19.2534 31.0942 19.5534 29.5379 20.1534 28.0004C20.7534 26.4629 21.7284 25.0192 23.0784 23.6692C23.9534 22.7942 25.0347 22.0442 26.3222 21.4192C27.6097 20.7942 29.1347 20.3004 30.8972 19.9379C32.6597 19.5754 34.6722 19.3567 36.9347 19.2817C39.1972 19.2067 41.7284 19.2942 44.5284 19.5442C44.7284 22.1942 44.7909 24.6317 44.7159 26.8567C44.6409 29.0817 44.4347 31.0879 44.0972 32.8754C43.7597 34.6629 43.2847 36.2254 42.6722 37.5629C42.0597 38.9004 41.3034 40.0192 40.4034 40.9192C39.0784 42.2442 37.6722 43.2129 36.1847 43.8254C34.6972 44.4379 33.1784 44.7442 31.6284 44.7442C30.0034 44.7442 28.4159 44.4254 26.8659 43.7879C25.3159 43.1504 23.9784 42.2692 22.8534 41.1442ZM27.0534 40.5442C27.7784 40.9692 28.5222 41.2754 29.2847 41.4629C30.0472 41.6504 30.8284 41.7442 31.6284 41.7442C32.7784 41.7442 33.9159 41.5129 35.0409 41.0504C36.1659 40.5879 37.2409 39.8442 38.2659 38.8192C38.7159 38.3692 39.1722 37.7379 39.6347 36.9254C40.0972 36.1129 40.4972 35.0504 40.8347 33.7379C41.1722 32.4254 41.4284 30.8379 41.6034 28.9754C41.7784 27.1129 41.8034 24.8942 41.6784 22.3192C40.4534 22.2692 39.0722 22.2504 37.5347 22.2629C35.9972 22.2754 34.4659 22.3942 32.9409 22.6192C31.4159 22.8442 29.9659 23.2067 28.5909 23.7067C27.2159 24.2067 26.0909 24.8942 25.2159 25.7692C24.0909 26.8942 23.3159 28.0067 22.8909 29.1067C22.4659 30.2067 22.2534 31.2692 22.2534 32.2942C22.2534 33.7692 22.5347 35.0629 23.0972 36.1754C23.6597 37.2879 24.1534 38.0692 24.5784 38.5192C25.6284 36.5192 27.0159 34.6004 28.7409 32.7629C30.4659 30.9254 32.4784 29.4192 34.7784 28.2442C32.9784 29.8192 31.4097 31.6004 30.0722 33.5879C28.7347 35.5754 27.7284 37.8942 27.0534 40.5442Z" fill="#006F66"/>
</svg>
