<svg width="14" height="25" viewBox="0 0 14 25" fill="none" xmlns="http://www.w3.org/2000/svg">
<path d="M10.1619 11.25H3.47443C3.37027 11.5 3.24527 11.7448 3.09943 11.9844C2.9536 12.224 2.77652 12.4271 2.56818 12.5938L3.47443 22.5H10.1619L11.0682 12.5938C10.8598 12.4062 10.6828 12.1979 10.5369 11.9688C10.3911 11.7396 10.2661 11.5 10.1619 11.25ZM3.13068 6.25L2.78693 7.625C2.93277 7.79167 3.06297 7.96875 3.17756 8.15625C3.29214 8.34375 3.3911 8.54167 3.47443 8.75H10.1619C10.2453 8.54167 10.3442 8.34375 10.4588 8.15625C10.5734 7.96875 10.7036 7.79167 10.8494 7.625L10.5057 6.25H3.13068ZM3.47443 25C2.8286 25 2.2661 24.7865 1.78693 24.3594C1.30777 23.9323 1.03693 23.3958 0.974432 22.75L0.00568182 11.9375C-0.0151515 11.7292 0.0213068 11.5365 0.115057 11.3594C0.208807 11.1823 0.349432 11.0417 0.536932 10.9375C0.703598 10.8333 0.849432 10.7083 0.974432 10.5625C1.09943 10.4167 1.16193 10.2396 1.16193 10.0312C1.16193 9.84375 1.12027 9.67188 1.03693 9.51562C0.953599 9.35938 0.828598 9.22917 0.661932 9.125C0.453598 9.02083 0.297348 8.85938 0.193182 8.64062C0.0890151 8.42188 0.0681818 8.19792 0.130682 7.96875L0.943182 4.6875C1.00568 4.39583 1.15152 4.16667 1.38068 4C1.60985 3.83333 1.87027 3.75 2.16193 3.75H5.56818V2.5H3.69318V0H9.94318V2.5H8.06818V3.75H11.4744C11.7661 3.75 12.0213 3.83333 12.2401 4C12.4588 4.16667 12.5994 4.39583 12.6619 4.6875L13.5057 7.96875C13.5682 8.19792 13.5473 8.42188 13.4432 8.64062C13.339 8.85938 13.1828 9.02083 12.9744 9.125C12.8078 9.20833 12.6776 9.32292 12.5838 9.46875C12.4901 9.61458 12.4432 9.78125 12.4432 9.96875C12.4432 10.1979 12.5005 10.3906 12.6151 10.5469C12.7296 10.7031 12.8807 10.8333 13.0682 10.9375C13.2557 11.0417 13.4015 11.1823 13.5057 11.3594C13.6098 11.5365 13.6515 11.7292 13.6307 11.9375L12.6619 22.7188C12.5994 23.3646 12.3286 23.9062 11.8494 24.3438C11.3703 24.7812 10.8078 25 10.1619 25H3.47443Z" fill="#0D631B"/>
</svg>
